<mxfile host="app.diagrams.net" modified="2024-05-22T11:12:10.695Z" agent="Mozilla/5.0 (Windows NT 10.0; Win64; x64; rv:109.0) Gecko/20100101 Firefox/115.0" version="24.4.4" etag="jIrWLVN1y5nsaOACUXjs" type="github">
  <diagram name="Page-1" id="py6KdPY4mDcN0l5CrXU8">
    <mxGraphModel>
      <root>
        <mxCell id="0" />
        <mxCell id="1" parent="0" />
      </root>
    </mxGraphModel>
  </diagram>
</mxfile>
